# xmcd
#
# Track frame offsets:
#	150
#	21882
#	43917
#	63607
#	81877
#	103791
#	124944
#	146654
#	165802
#	186454
#
# Disc length: 2759 seconds
#
# Revision: 7
# Processed by: cddbd v1.5.2PL0 Copyright (c) Steve Scherf et al.
# Submitted via: EZCDAudioConverter 3.1.0.1
#
DISCID=8d0ac50a
DTITLE=李克勤 - 情牢
DYEAR=1997
DGENRE=POP
TTITLE0=情牢
TTITLE1=只想找到你
TTITLE2=十字路口
TTITLE3=插翅難飛
TTITLE4=承認吧
TTITLE5=真實謊言
TTITLE6=告白
TTITLE7=原來你也曾愛我
TTITLE8=難道你不懂
TTITLE9=知己
EXTD=
EXTT0=
EXTT1=
EXTT2=
EXTT3=
EXTT4=
EXTT5=
EXTT6=
EXTT7=
EXTT8=
EXTT9=
PLAYORDER=
